<svg xmlns="http://www.w3.org/2000/svg" viewBox="0 0 48 48" width="48" height="48">
  <!-- Mop handle (brown wood) -->
  <line x1="36" y1="4" x2="20" y2="38" stroke="#8D6E63" stroke-width="2.8" stroke-linecap="round"/>
  <!-- Mop head strands (blue/teal) -->
  <path d="M14 36 Q17 32 20 38" fill="none" stroke="#29B6F6" stroke-width="2.5" stroke-linecap="round"/>
  <path d="M16 39 Q19 35 22 41" fill="none" stroke="#26C6DA" stroke-width="2.5" stroke-linecap="round"/>
  <path d="M12 39 Q15 36 17 42" fill="none" stroke="#29B6F6" stroke-width="2.2" stroke-linecap="round"/>
  <path d="M10 36 Q13 33 15 39" fill="none" stroke="#26C6DA" stroke-width="2" stroke-linecap="round"/>
  <!-- Bucket body (orange) -->
  <path d="M26 24 L30 44 Q34 46 38 44 L36 24 Z" fill="#FF7043" stroke="#E64A19" stroke-width="2" stroke-linejoin="round"/>
  <!-- Bucket water line -->
  <line x1="27.5" y1="35" x2="36.5" y2="35" stroke="#29B6F6" stroke-width="2"/>
  <!-- Bucket water fill (blue) -->
  <path d="M27.5 35 L30 44 Q34 46 38 44 L36.5 35 Z" fill="#29B6F6" opacity="0.45"/>
  <!-- Bucket handle arc (dark orange) -->
  <path d="M28 24 Q32 18 36 24" fill="none" stroke="#BF360C" stroke-width="2.2" stroke-linecap="round"/>
  <!-- Effort sparks (yellow/gold) -->
  <line x1="40" y1="8"  x2="43" y2="6"  stroke="#FFD54F" stroke-width="2" stroke-linecap="round"/>
  <line x1="42" y1="13" x2="46" y2="12" stroke="#FFD54F" stroke-width="2" stroke-linecap="round"/>
  <line x1="41" y1="18" x2="45" y2="19" stroke="#FFD54F" stroke-width="2" stroke-linecap="round"/>
  <circle cx="44" cy="9" r="1.5" fill="#FF7043"/>
</svg>
