<svg xmlns="http://www.w3.org/2000/svg" viewBox="0 0 48 48" width="48" height="48">
  <!-- Shelf unit (wood) -->
  <rect x="4" y="4" width="40" height="40" rx="2" fill="#FFF8E1" stroke="#8D6E63" stroke-width="2.2"/>
  <!-- Shelves (brown) -->
  <rect x="4" y="17" width="40" height="3" rx="1" fill="#8D6E63"/>
  <rect x="4" y="30" width="40" height="3" rx="1" fill="#8D6E63"/>
  <!-- Top shelf items (colorful) -->
  <rect x="7"  y="7"  width="5" height="10" rx="1.5" fill="#EF5350"/>
  <circle cx="9.5" cy="6.5" r="1.5" fill="#EF5350"/>
  <rect x="14" y="9"  width="4" height="8"  rx="1.5" fill="#66BB6A"/>
  <rect x="20" y="7"  width="6" height="10" rx="1.5" fill="#29B6F6"/>
  <rect x="28" y="8"  width="4" height="9"  rx="1.5" fill="#FFD54F"/>
  <rect x="34" y="7"  width="5" height="10" rx="1.5" fill="#AB47BC"/>
  <!-- Middle shelf items (colorful) -->
  <rect x="7"  y="21" width="4" height="9" rx="1.5" fill="#FF7043"/>
  <rect x="13" y="20" width="6" height="10" rx="1.5" fill="#26C6DA"/>
  <rect x="21" y="21" width="4" height="9"  rx="1.5" fill="#EF5350"/>
  <rect x="27" y="20" width="5" height="10" rx="1.5" fill="#66BB6A"/>
  <rect x="34" y="21" width="5" height="9"  rx="1.5" fill="#FFD54F"/>
  <!-- Bottom shelf items (colorful) -->
  <rect x="7"  y="34" width="7" height="8" rx="1.5" fill="#29B6F6"/>
  <rect x="17" y="35" width="5" height="7" rx="1.5" fill="#AB47BC"/>
  <rect x="24" y="33" width="6" height="9" rx="1.5" fill="#FF7043"/>
  <rect x="32" y="34" width="7" height="8" rx="1.5" fill="#66BB6A"/>
</svg>
