<svg xmlns="http://www.w3.org/2000/svg" viewBox="0 0 48 48" width="48" height="48">
  <!-- Toe pads -->
  <ellipse cx="12" cy="20" rx="4.5" ry="5.5" fill="#1a2b4a"/>
  <ellipse cx="20" cy="15" rx="4.5" ry="5.5" fill="#1a2b4a"/>
  <ellipse cx="28" cy="15" rx="4.5" ry="5.5" fill="#1a2b4a"/>
  <ellipse cx="36" cy="20" rx="4.5" ry="5.5" fill="#1a2b4a"/>
  <!-- Main paw pad -->
  <ellipse cx="24" cy="33" rx="11" ry="10" fill="#1a2b4a"/>
  <!-- Inner pad detail -->
  <ellipse cx="24" cy="33" rx="7" ry="6.5" fill="#4db8e8" opacity="0.2"/>
  <!-- Sparkle 1 (4-point star) -->
  <path d="M5 9 L6 6 L7 9 L10 10 L7 11 L6 14 L5 11 L2 10 Z" fill="#4db8e8"/>
  <!-- Sparkle 2 (smaller) -->
  <path d="M41 6 L42 4 L43 6 L45 7 L43 8 L42 10 L41 8 L39 7 Z" fill="#4db8e8" opacity="0.8"/>
  <!-- Sparkle 3 (dot) -->
  <circle cx="43" cy="18" r="2" fill="#4db8e8" opacity="0.6"/>
  <circle cx="4"  cy="17" r="1.5" fill="#4db8e8" opacity="0.5"/>
</svg>
